<svg width="22" height="21" viewBox="0 0 22 21" fill="none" xmlns="http://www.w3.org/2000/svg">
<g id="Group">
<path id="Vector" d="M5.44444 3H3.22222C2.63285 3 2.06762 3.21071 1.65087 3.58579C1.23413 3.96086 1 4.46957 1 5V17C1 17.5304 1.23413 18.0391 1.65087 18.4142C2.06762 18.7893 2.63285 19 3.22222 19H9.55222M16.5556 12V16H21M16.5556 9V5C16.5556 4.46957 16.3214 3.96086 15.9047 3.58579C15.4879 3.21071 14.9227 3 14.3333 3H12.1111" stroke="white" stroke-width="2" stroke-linecap="round" stroke-linejoin="round"/>
<path id="Vector_2" d="M5.44531 9H9.88976M5.44531 13H8.77865M5.44531 3C5.44531 2.46957 5.67944 1.96086 6.09619 1.58579C6.51293 1.21071 7.07816 1 7.66753 1H9.88976C10.4791 1 11.0444 1.21071 11.4611 1.58579C11.8779 1.96086 12.112 2.46957 12.112 3C12.112 3.53043 11.8779 4.03914 11.4611 4.41421C11.0444 4.78929 10.4791 5 9.88976 5H7.66753C7.07816 5 6.51293 4.78929 6.09619 4.41421C5.67944 4.03914 5.44531 3.53043 5.44531 3ZM12.112 16C12.112 17.0609 12.5802 18.0783 13.4137 18.8284C14.2472 19.5786 15.3777 20 16.5564 20C17.7352 20 18.8656 19.5786 19.6991 18.8284C20.5326 18.0783 21.0009 17.0609 21.0009 16C21.0009 14.9391 20.5326 13.9217 19.6991 13.1716C18.8656 12.4214 17.7352 12 16.5564 12C15.3777 12 14.2472 12.4214 13.4137 13.1716C12.5802 13.9217 12.112 14.9391 12.112 16Z" stroke="white" stroke-width="2" stroke-linecap="round" stroke-linejoin="round"/>
</g>
</svg>
