<svg width="15" height="17" viewBox="0 0 15 17" fill="none" xmlns="http://www.w3.org/2000/svg">
<path id="Vector" fill-rule="evenodd" clip-rule="evenodd" d="M3.5375 0H11.4625C12.4283 0 12.9108 8.866e-08 13.3008 0.138547C13.6685 0.271474 14.0013 0.489091 14.2731 0.774488C14.545 1.05989 14.7487 1.40538 14.8683 1.78411C15 2.1938 15 2.70039 15 3.71442V15.6176C15 16.3468 14.1792 16.7344 13.66 16.2499C13.5143 16.1127 13.3233 16.0364 13.125 16.0364C12.9267 16.0364 12.7357 16.1127 12.59 16.2499L12.1875 16.6256C11.9323 16.8663 11.5976 17 11.25 17C10.9024 17 10.5677 16.8663 10.3125 16.6256C10.0573 16.385 9.72255 16.2513 9.375 16.2513C9.02744 16.2513 8.69267 16.385 8.4375 16.6256C8.18233 16.8663 7.84755 17 7.5 17C7.15245 17 6.81767 16.8663 6.5625 16.6256C6.30733 16.385 5.97255 16.2513 5.625 16.2513C5.27745 16.2513 4.94267 16.385 4.6875 16.6256C4.43233 16.8663 4.09755 17 3.75 17C3.40245 17 3.06767 16.8663 2.8125 16.6256L2.41 16.2499C2.26434 16.1127 2.07331 16.0364 1.875 16.0364C1.67668 16.0364 1.48566 16.1127 1.34 16.2499C0.820833 16.7344 0 16.3468 0 15.6176V3.71442C0 2.70039 -1.24176e-08 2.19295 0.131667 1.78496C0.381667 1.00893 0.960833 0.400341 1.69917 0.138547C2.08917 8.866e-08 2.57167 0 3.5375 0ZM10.05 5.52488C10.1047 5.46237 10.1468 5.38948 10.1739 5.31038C10.201 5.23127 10.2126 5.14749 10.2079 5.06383C10.2033 4.98016 10.1825 4.89825 10.1469 4.82277C10.1112 4.74729 10.0613 4.67971 10 4.6239C9.93872 4.56809 9.86726 4.52514 9.7897 4.49749C9.71214 4.46985 9.63 4.45806 9.54798 4.4628C9.46595 4.46754 9.38564 4.4887 9.31164 4.52509C9.23764 4.56149 9.17138 4.61239 9.11667 4.6749L6.6075 7.54273L5.8825 6.71485C5.7717 6.58997 5.61694 6.51489 5.45204 6.50601C5.28714 6.49713 5.12549 6.55517 5.00241 6.66746C4.87933 6.77975 4.80482 6.93715 4.79516 7.10529C4.78549 7.27344 4.84146 7.43865 4.95083 7.56483L6.14083 8.9248C6.19946 8.99179 6.2713 9.04539 6.35165 9.08209C6.432 9.11879 6.51905 9.13776 6.60708 9.13776C6.69512 9.13776 6.78216 9.11879 6.86251 9.08209C6.94286 9.04539 7.01471 8.99179 7.07333 8.9248L10.05 5.52488ZM3.75 10.8373C3.58424 10.8373 3.42527 10.9044 3.30806 11.024C3.19085 11.1435 3.125 11.3057 3.125 11.4747C3.125 11.6438 3.19085 11.806 3.30806 11.9255C3.42527 12.0451 3.58424 12.1122 3.75 12.1122H11.25C11.4158 12.1122 11.5747 12.0451 11.6919 11.9255C11.8092 11.806 11.875 11.6438 11.875 11.4747C11.875 11.3057 11.8092 11.1435 11.6919 11.024C11.5747 10.9044 11.4158 10.8373 11.25 10.8373H3.75Z" fill="white"/>
</svg>
